<mxfile host="app.diagrams.net" modified="2024-01-09T09:43:10.149Z" agent="Mozilla/5.0 (Windows NT 10.0; Win64; x64) AppleWebKit/537.36 (KHTML, like Gecko) Chrome/120.0.0.0 Safari/537.36" version="22.1.17" etag="fVkrGBn4aqqT3qXtITaN" type="github">
  <diagram name="Страница — 1" id="aW1oyt6F3Rb7L8fDZohj">
    <mxGraphModel>
      <root>
        <mxCell id="0" />
        <mxCell id="1" parent="0" />
      </root>
    </mxGraphModel>
  </diagram>
</mxfile>
